<svg width="19" height="26" viewBox="0 0 19 26" fill="none" xmlns="http://www.w3.org/2000/svg">
<path d="M15.837 13.6691C15.8709 17.5569 18.9302 18.866 18.9642 18.8837C18.9302 18.9762 18.4692 20.7394 17.3517 22.5379C16.3798 24.1027 15.376 25.6631 13.7795 25.7006C12.2169 25.7358 11.7239 24.6823 9.92784 24.6823C8.15171 24.6823 7.59292 25.6631 6.11015 25.7358C4.59745 25.7909 3.42799 24.0277 2.44214 22.4651C0.450475 19.2672 -1.08019 13.4332 0.977328 9.50575C1.99511 7.54421 3.82313 6.30778 5.79883 6.28794C7.29557 6.25268 8.72845 7.41638 9.65044 7.41638C10.5704 7.41638 12.2987 6.03448 14.1087 6.23505C14.8671 6.27031 17.0064 6.58107 18.3715 8.77843C18.2557 8.85117 15.821 10.416 15.837 13.6691ZM12.9074 4.10821C13.7136 3.01724 14.2744 1.50752 14.1247 0C12.9572 0.0550994 11.5423 0.855142 10.6862 1.94611C9.92784 2.90925 9.26927 4.45423 9.45088 5.92649C10.752 6.03669 12.1011 5.18155 12.9074 4.10821Z" fill="black"/>
</svg>
