<svg width="24" height="25" viewBox="0 0 24 25" fill="none" xmlns="http://www.w3.org/2000/svg">
<g clip-path="url(#clip0_8275_24)">
<path d="M23.0278 12.4614C23.0278 11.4618 22.9494 10.7325 22.7798 9.97607H11.7489V14.4874H18.2238C18.0933 15.6085 17.3883 17.2969 15.8218 18.4314L15.7998 18.5824L19.2876 21.3781L19.5292 21.403C21.7484 19.2824 23.0278 16.1623 23.0278 12.4614Z" fill="#4285F4"/>
<path d="M11.7489 24.3475C14.921 24.3475 17.5841 23.2669 19.5292 21.403L15.8218 18.4314C14.8297 19.1473 13.4981 19.647 11.7489 19.647C8.64197 19.647 6.00502 17.5265 5.06502 14.5955L4.92724 14.6076L1.30062 17.5116L1.25319 17.648C3.1852 21.619 7.15372 24.3475 11.7489 24.3475Z" fill="#34A853"/>
<path d="M5.06502 14.5955C4.81699 13.8391 4.67345 13.0286 4.67345 12.1912C4.67345 11.3537 4.81699 10.5433 5.05197 9.78694L5.0454 9.62584L1.37333 6.67517L1.25318 6.7343C0.456905 8.38218 0 10.2327 0 12.1912C0 14.1497 0.456905 16.0001 1.25318 17.648L5.06502 14.5955Z" fill="#FBBC05"/>
<path d="M11.7489 4.73521C13.955 4.73521 15.4432 5.72122 16.2917 6.54521L19.6075 3.19544C17.5711 1.23692 14.921 0.03479 11.7489 0.03479C7.15372 0.03479 3.18521 2.76319 1.25319 6.73424L5.05197 9.78687C6.00502 6.85585 8.64197 4.73521 11.7489 4.73521Z" fill="#EB4335"/>
</g>
<defs>
<clipPath id="clip0_8275_24">
<rect width="23.0278" height="24.3824" fill="white"/>
</clipPath>
</defs>
</svg>
