<svg width="139" height="148" viewBox="0 0 139 148" fill="none" xmlns="http://www.w3.org/2000/svg">
<path d="M56.6762 107.905V111.851C52.5137 111.351 50.8273 114.621 50.9369 118.308H56.6762V122.433H50.9369V138.396L46.9935 138.214V122.433H37.4852V138.216H33.5394V122.433H29.5936V118.308H33.5394V115.707C33.5394 112.9 37.2835 107.905 40.2652 107.905H43.2246C43.2919 108.1 43.0452 108.299 43.0452 108.354V111.224C43.0452 111.316 43.3292 111.6 43.2246 111.851C39.1268 111.298 37.2735 114.674 37.4852 118.308H46.9911C46.5202 112.564 50.5034 106.984 56.6762 107.905Z" fill="white"/>
<path d="M16.112 107.933L28.3356 138.214L23.8766 138.189L21.2262 131.782L6.79307 131.864L4.3095 138.132L0 138.393L12.2136 108.013C12.6296 107.397 13.3594 107.883 13.9025 107.903C14.6398 107.928 15.3822 107.856 16.1145 107.933H16.112ZM19.5497 127.634L13.9922 114.183L8.60903 127.634H19.5497Z" fill="white"/>
<path d="M121.692 118.308L128.236 133.013L134.516 118.308H139L126.445 147.363H121.961L125.815 138.191L117.298 118.308H121.692Z" fill="white"/>
<path d="M87.7045 138.216H83.7587V126.11C83.7587 125.482 83.2132 124.01 82.7548 123.527C81.0634 121.753 75.1472 121.81 74.2006 124.62C73.4632 126.807 73.8792 133.628 73.8892 136.341C73.8892 136.849 74.2903 138.04 73.7123 138.319C73.5255 138.465 73.3362 138.216 73.2689 138.216H69.9509V118.487H73.8967L74.1657 119.559C78.2386 117.187 85.1088 118.089 87.0793 122.794C87.2636 123.233 87.7095 124.64 87.7095 125.034V138.216H87.7045Z" fill="white"/>
<path d="M109.227 107.905V118.308H114.428V122.433H109.227V133.105C109.227 133.224 109.628 133.698 109.773 133.815C111.205 134.973 113.382 133.521 113.694 133.747L115.146 137.496C112.137 138.59 108.437 138.857 106.283 136.049C105.981 135.656 105.281 134.44 105.281 134.002V122.433H102.232V118.308H105.281L105.291 107.915C106.589 107.676 107.927 107.616 109.227 107.905Z" fill="white"/>
<path d="M98.1071 118.308V138.396C97.9253 138.465 97.731 138.216 97.6587 138.216H94.4304C94.3755 138.216 94.2933 138.443 94.1613 138.396V118.308H98.1071Z" fill="white"/>
<path d="M63.3123 118.308H59.3665V138.216H63.3123V118.308Z" fill="white"/>
<path d="M96.0894 107.768C99.0413 107.602 99.8533 112.148 97.0011 112.985C93.1375 114.118 92.1037 107.995 96.0894 107.768Z" fill="white"/>
<path d="M61.4291 107.823C64.3859 107.818 64.924 112.187 62.2063 112.985C58.2979 114.128 57.3413 107.831 61.4291 107.823Z" fill="white"/>
<path d="M30.2258 48.2302C26.67 44.528 23.8083 41.6 21.9759 36.597C14.3536 15.7713 33.2318 -4.85397 54.4726 1.0137C60.6718 2.72723 65.2607 6.67307 69.4909 11.3342C73.9083 6.47657 78.8715 2.31064 85.4021 0.777895C106.577 -4.19764 124.655 16.2233 116.928 36.8014C114.955 42.0481 111.446 45.6284 107.547 49.4367C107.458 49.9633 109.446 51.3271 109.793 52.2074C110.518 54.0428 109.867 55.8271 107.933 56.3144L98.5294 56.7389C97.5235 60.1895 100.175 66.6349 94.4785 66.6467C93.1958 66.6467 91.8819 65.5148 91.2581 65.8017C87.0123 70.0187 83.3981 74.5541 77.6395 76.7117C69.2258 79.8637 60.7341 78.0598 54.0476 72.1882C46.25 65.338 37.5361 55.8428 30.2258 48.2341V48.2302ZM44.3084 6.32329C33.5827 7.5377 25.5979 18.0586 26.4088 28.7368C27.6682 45.2983 47.4118 53.9406 60.2234 43.3057C68.8905 36.1097 76.5478 26.3512 85.0706 18.8329C93.3713 12.1713 105.111 20.1219 101.933 30.4542C100.919 33.7437 98.0031 35.6852 96.042 38.3223C97.1648 39.2538 102.031 44.9406 102.912 45.0271C103.649 45.0978 106.191 42.3468 106.83 41.6197C124.351 21.7136 98.8296 -4.67318 79.3238 10.4971C71.9082 16.2665 64.9371 24.901 57.9894 31.4368C53.4979 35.6616 49.5757 39.8 42.819 36.8092C33.9648 32.8909 34.7718 19.5049 44.0861 16.856C50.4568 15.0442 53.7942 18.5971 57.9816 22.6529L64.8084 15.7281C59.814 8.94861 52.8351 5.35648 44.3045 6.32329H44.3084ZM43.9068 23.8909C40.6123 27.3887 44.3707 33.1464 48.7764 31.2009C49.5679 30.8512 53.147 27.9547 53.3225 27.2708C53.4979 26.587 50.3905 23.8673 49.6849 23.3839C47.9265 22.1813 45.4195 22.2835 43.9068 23.887V23.8909ZM90.3341 22.7276C88.8135 23.1167 86.6926 26.5595 85.0785 27.3258C85.059 27.9507 90.7006 32.9302 91.6324 33.673C92.9931 32.1442 95.8548 30.1948 96.2369 28.1119C96.9114 24.4293 93.9054 21.808 90.338 22.7276H90.3341ZM99.1064 50.3878L80.6689 32.0341L73.5691 38.9276L91.9521 57.179C91.6324 52.0895 94.038 49.7236 99.1064 50.3878ZM68.9685 43.3372L62.0714 49.928L68.6332 56.6288C69.2219 57.0886 69.7482 56.9825 70.3487 56.6288C70.8399 56.338 75.1715 51.8969 75.6706 51.2446C75.9123 50.9301 76.2047 50.6472 76.2983 50.2424L68.9685 43.3332V43.3372ZM44.9322 54.0703L58.8354 68.2069C64.1066 72.5576 71.031 73.4183 77.1248 70.2506C80.9808 68.2462 83.8698 64.1864 87.0162 61.2467L80.7196 54.9074C77.0001 57.7332 74.6179 63.2511 69.2141 63.145C64.1261 63.0467 59.7984 55.5245 55.962 52.6948C52.3595 53.7913 48.7023 54.3022 44.9322 54.0703Z" fill="#F9D2DA"/>
</svg>
