<svg width="93" height="74" viewBox="0 0 93 74" fill="none" xmlns="http://www.w3.org/2000/svg">
<path d="M9.41752 45.5386C6.06021 42.043 3.35818 39.2785 1.62799 34.5547C-5.56886 14.8912 12.2558 -4.58308 32.3112 0.957131C38.1644 2.57504 42.4973 6.30067 46.4914 10.7017C50.6623 6.11513 55.3485 2.18169 61.5146 0.734484C81.5075 -3.96338 98.5775 15.3179 91.2812 34.7476C89.4185 39.7015 86.1054 43.0821 82.4241 46.6778C82.3394 47.1751 84.2169 48.4627 84.5445 49.2939C85.2292 51.0269 84.6145 52.7116 82.7886 53.1717L73.9094 53.5725C72.9596 56.8305 75.4629 62.9163 70.0846 62.9274C68.8734 62.9274 67.6328 61.8587 67.0438 62.1296C63.035 66.1112 59.6224 70.3935 54.1852 72.4307C46.2411 75.4068 38.2233 73.7035 31.91 68.1596C24.5475 61.6917 16.3199 52.7264 9.41752 45.5423V45.5386ZM22.7142 5.97041C12.5871 7.11705 5.04787 17.0508 5.81357 27.1331C7.00262 42.7704 25.6445 50.9304 37.7411 40.889C45.9245 34.0945 53.1545 24.8806 61.2017 17.7819C69.0391 11.4921 80.1233 18.999 77.1231 28.7547C76.166 31.8606 73.4124 33.6938 71.5607 36.1837C72.6209 37.0632 77.2151 42.4327 78.0471 42.5143C78.7429 42.5811 81.143 39.9835 81.7468 39.2971C98.2903 20.5019 74.1928 -4.41239 55.7755 9.91128C48.7738 15.3587 42.1917 23.5113 35.6317 29.6824C31.3909 33.6715 27.6876 37.579 21.308 34.755C12.9478 31.0554 13.7099 18.4164 22.5044 15.9153C28.5195 14.2047 31.6707 17.5592 35.6244 21.3888L42.0702 14.8503C37.3545 8.44922 30.7651 5.05756 22.7105 5.97041H22.7142ZM22.335 22.5577C19.2244 25.8603 22.7731 31.2966 26.9329 29.4597C27.6802 29.1295 31.0596 26.3946 31.2253 25.7489C31.3909 25.1033 28.457 22.5354 27.7906 22.079C26.1304 20.9435 23.7634 21.0399 22.335 22.5539V22.5577ZM66.1714 21.4593C64.7357 21.8266 62.7331 25.0773 61.2091 25.8009C61.1907 26.3909 66.5174 31.0925 67.3972 31.7938C68.682 30.3503 71.384 28.5098 71.7448 26.5431C72.3817 23.066 69.5434 20.5909 66.1751 21.4593H66.1714ZM74.4542 47.5758L57.0456 30.2464L50.342 36.7552L67.6991 53.9881C67.3972 49.1826 69.6686 46.9487 74.4542 47.5758ZM45.9981 40.9187L39.486 47.1417L45.6815 53.4686C46.2374 53.9027 46.7344 53.8025 47.3013 53.4686C47.7651 53.194 51.855 49.0008 52.3262 48.3848C52.5544 48.0879 52.8305 47.8207 52.9189 47.4385L45.9981 40.915V40.9187ZM23.3032 51.0528L36.4305 64.4006C41.4076 68.5084 47.9455 69.3211 53.6993 66.3302C57.3401 64.4377 60.0679 60.6044 63.0386 57.8288L57.0934 51.8432C53.5815 54.5113 51.3323 59.7213 46.23 59.6211C41.426 59.5283 37.3398 52.4258 33.7175 49.7541C30.316 50.7894 26.863 51.2718 23.3032 51.0528Z" fill="white"/>
</svg>
